<?xml version="1.0" standalone="no"?>
<!DOCTYPE svg PUBLIC "-//W3C//DTD SVG 20010904//EN"
 "http://www.w3.org/TR/2001/REC-SVG-20010904/DTD/svg10.dtd">
<svg version="1.0" xmlns="http://www.w3.org/2000/svg"
 width="700.000000pt" height="700.000000pt" viewBox="0 0 700.000000 700.000000"
 preserveAspectRatio="xMidYMid meet">
<metadata>
Created by potrace 1.11, written by Peter Selinger 2001-2013
</metadata>
<g transform="translate(0.000000,700.000000) scale(0.100000,-0.100000)"
fill="#000000" stroke="none">
<path d="M3507 5964 c-1 -1 -55 -4 -119 -8 -65 -3 -123 -8 -130 -11 -7 -2 -33
-6 -58 -9 -229 -25 -533 -123 -778 -252 -236 -123 -416 -256 -607 -449 -142
-143 -157 -160 -247 -283 -234 -323 -396 -715 -444 -1069 -3 -26 -8 -51 -10
-54 -7 -12 -18 -218 -18 -329 0 -112 9 -270 19 -320 2 -14 6 -41 9 -61 17
-140 82 -371 153 -544 168 -412 451 -778 805 -1042 243 -181 511 -313 813
-402 213 -62 433 -89 690 -86 110 2 220 6 245 10 197 28 295 49 440 92 94 29
300 109 314 124 6 5 15 9 22 9 10 0 71 32 208 109 226 128 485 356 673 593
205 258 359 566 444 884 17 65 33 128 34 140 2 11 8 45 14 75 39 202 46 520
16 749 -18 127 -61 311 -106 445 -123 366 -321 687 -589 955 -136 137 -152
151 -284 249 -381 282 -836 450 -1295 477 -94 6 -211 10 -214 8z m188 -228
c66 -3 131 -8 145 -10 14 -3 43 -7 65 -11 217 -31 449 -107 668 -217 343 -172
678 -480 887 -816 121 -196 241 -484 275 -661 2 -13 6 -30 9 -39 13 -44 43
-250 46 -317 7 -159 -2 -453 -14 -474 -2 -3 -7 -28 -10 -56 -9 -68 -53 -244
-83 -335 -240 -723 -837 -1280 -1573 -1468 -63 -17 -137 -33 -165 -38 -27 -4
-55 -8 -61 -9 -124 -26 -503 -27 -659 -1 -400 65 -749 218 -1067 467 -89 69
-277 252 -324 315 -16 22 -37 48 -47 59 -11 11 -55 73 -98 139 -202 300 -335
674 -367 1026 -16 180 -1 490 32 645 159 752 647 1345 1349 1640 141 59 324
111 467 134 36 6 76 13 90 16 14 3 81 8 150 12 69 3 126 7 128 8 2 2 11 1 20
-1 9 -1 71 -5 137 -8z"/>
<path d="M3457 5194 c-1 -1 -33 -4 -72 -7 -432 -37 -860 -266 -1139 -611 -207
-256 -329 -537 -374 -861 -9 -68 -9 -367 1 -434 108 -755 683 -1340 1432
-1455 17 -3 50 -8 75 -11 87 -13 374 -6 431 11 10 3 31 6 48 9 56 7 195 46
289 81 480 178 860 574 1016 1059 32 101 49 176 74 323 10 54 8 371 -2 427 -2
17 -8 46 -11 65 -4 19 -9 46 -11 60 -9 51 -56 204 -84 276 -157 394 -463 721
-845 903 -232 111 -443 161 -703 165 -67 2 -123 2 -125 0z m293 -228 c14 -3
54 -10 90 -16 159 -28 394 -125 530 -218 105 -72 150 -110 240 -202 207 -211
349 -489 399 -780 26 -148 22 -397 -7 -536 -28 -131 -64 -237 -117 -349 -41
-86 -121 -216 -163 -266 -79 -94 -107 -124 -162 -176 -176 -165 -409 -291
-648 -352 -127 -33 -257 -47 -391 -44 -719 17 -1326 556 -1428 1266 -5 29 -8
131 -8 227 1 194 18 303 77 469 185 529 673 920 1218 977 30 4 56 7 58 9 5 5
284 -3 312 -9z"/>
<path d="M36 5926 l-36 -34 0 -703 c0 -560 3 -715 14 -756 32 -120 119 -227
230 -282 35 -17 68 -31 75 -31 8 0 11 -388 13 -1442 l3 -1443 25 -49 c23 -45
72 -92 130 -125 14 -8 57 -16 95 -19 55 -3 80 0 117 16 65 29 122 83 149 145
l23 52 0 1428 1 1429 71 32 c134 63 236 198 251 333 3 32 6 360 6 728 0 634
-1 673 -18 702 -32 55 -93 68 -150 33 -18 -11 -37 -33 -42 -48 -5 -15 -9 -226
-9 -470 l1 -442 -22 -1 c-29 -2 -60 -2 -75 0 -10 1 -13 98 -13 450 0 488 0
488 -57 517 -57 30 -118 11 -145 -45 -16 -33 -18 -73 -17 -478 l0 -443 -23 -1
c-30 -1 -71 -1 -80 0 -5 1 -8 202 -7 449 1 488 1 487 -56 517 -55 28 -114 14
-143 -35 -15 -25 -17 -76 -17 -479 0 -487 4 -453 -50 -453 -66 0 -60 -47 -60
445 0 401 -2 445 -18 477 -34 68 -109 80 -166 26z m948 -1296 c-1 -172 -20
-221 -108 -278 -41 -27 -41 -27 -262 -30 l-221 -2 -54 28 c-39 20 -62 41 -84
77 -29 47 -30 52 -33 191 l-3 143 383 -2 383 -2 -1 -125z m-328 -1931 c1
-1130 -1 -1398 -12 -1415 -18 -30 -50 -36 -76 -15 l-21 18 1 1394 c0 767 1
1399 1 1406 1 14 57 21 86 12 20 -6 20 -16 21 -1400z"/>
<path d="M6183 5951 c-12 -6 -30 -22 -40 -37 -17 -27 -18 -127 -18 -2339 0
-2237 1 -2312 19 -2359 71 -186 305 -236 446 -96 85 86 80 15 83 1125 l2 980
116 0 c129 1 167 12 192 55 16 26 17 104 17 1012 -1 1072 0 1051 -58 1196 -80
195 -253 359 -453 429 -40 13 -81 27 -93 29 -48 10 -193 13 -213 5z m297 -269
c95 -45 192 -141 239 -235 18 -36 34 -71 35 -79 2 -7 6 -20 9 -28 3 -8 8 -34
11 -57 5 -32 8 -949 6 -1763 l0 -75 -215 0 c-137 0 -216 3 -216 10 -1 5 -2
520 -3 1143 l-1 1133 30 -7 c16 -3 64 -22 105 -42z m-29 -2481 c0 -14 1 -450
1 -968 1 -752 -1 -945 -12 -958 -17 -20 -64 -19 -81 2 -12 13 -14 178 -15 977
0 529 1 963 2 966 1 3 25 6 53 6 48 0 51 -1 52 -25z"/>
</g>
</svg>
