<svg width="98" height="75" xmlns="http://www.w3.org/2000/svg" viewBox="0 0 97.63 74.665"><defs><style>.a{fill:#fc0;}</style></defs><path class="a" d="M967.461,4011.315H933.934a4.8,4.8,0,0,1-4.994-4.558v-2.866a13.074,13.074,0,0,1,2.275-7.3,11.6,11.6,0,0,1,6.493-4.728c.032-.009.065-.017.1-.024l9.076-1.9,2.4-3.634c.017-.026.035-.051.053-.076a2.683,2.683,0,0,1,3.844-.465l.029.024L964,3995.072l10.791-9.281.029-.025a2.684,2.684,0,0,1,3.844.466c.018.025.036.05.053.076l2.4,3.634,9.076,1.9.1.024a11.605,11.605,0,0,1,6.492,4.728,13.072,13.072,0,0,1,2.275,7.3v2.866a4.8,4.8,0,0,1-4.994,4.558h-26.6Zm.352-7.573.906,4.525h25.346a1.794,1.794,0,0,0,1.944-1.511v-2.866c0-3.595-2.23-7.858-6.493-9.079L980.843,3993l-8.671,11.911a1.526,1.526,0,0,1-1.114.623c-.039,0-.08,0-.119,0a1.529,1.529,0,0,1-1.079-.446l-1.779-1.777A4.022,4.022,0,0,1,967.814,4003.743Zm-5.422,4.525h3.216l-.607-3.036h-2Zm-23.908-13.456c-4.263,1.22-6.493,5.484-6.493,9.079v2.866a1.792,1.792,0,0,0,1.944,1.51H959.28l.906-4.525a3.921,3.921,0,0,1-.267-.426l-1.779,1.777a1.526,1.526,0,0,1-1.079.446,1.149,1.149,0,0,1-.119-.005,1.521,1.521,0,0,1-1.114-.623L947.157,3993Zm23.991,5.95v.587c0,.5.306.834.508.834h2.035c.2,0,.508-.333.508-.834v-.587L964,3999.238Zm3.767-3.595,4.513,4.509,7.58-10.412-1.894-2.868Zm-16.575-5.9,7.579,10.412,4.513-4.509-10.2-8.771Zm52.471,9.386a1.524,1.524,0,1,1,0-3.048h6.791c.478,0,.837-.286.837-.542v-1.951a5.954,5.954,0,0,0-4.052-5.709l-5.555-1.161-2.869,4.135a1.525,1.525,0,0,1-2.507-1.737l2.857-4.117-.844-1.279-5.95,4.438a1.524,1.524,0,1,1-1.825-2.442l6.53-4.87a2.316,2.316,0,0,1,3.282.429c.018.024.035.049.052.075l1.523,2.307,5.983,1.25c.034.007.066.015.1.024a9.042,9.042,0,0,1,6.325,8.656v1.951a3.752,3.752,0,0,1-3.887,3.59Zm-83.063,0a3.751,3.751,0,0,1-3.888-3.59v-1.951a9.042,9.042,0,0,1,6.325-8.656l.1-.024,5.983-1.25,1.523-2.307c.017-.026.034-.051.053-.075a2.315,2.315,0,0,1,3.281-.429l6.529,4.871a1.524,1.524,0,1,1-1.825,2.441l-5.949-4.437-.845,1.279,2.858,4.118a1.525,1.525,0,0,1-2.508,1.737l-2.869-4.135-5.555,1.161a5.951,5.951,0,0,0-4.051,5.708v1.951c0,.256.357.542.837.542h6.79a1.524,1.524,0,1,1,0,3.048Zm31.921-18.781a23.417,23.417,0,0,1-5.3-14.73v-2.472c-.33-1.4-2.356-10.194-2.356-14.952a11.6,11.6,0,0,1,2.539-7.512,9.285,9.285,0,0,1,7.239-3.255c.046,0,.093,0,.139.007,5.159-3.574,11.9-2.222,17.875-1.025,3.686.74,7.166,1.439,10,1.033a1.547,1.547,0,0,1,.353-.008,1.527,1.527,0,0,1,1.6,1.047,30.8,30.8,0,0,1,.879,8.347,63.082,63.082,0,0,1-1.641,14.129v4.671a23.438,23.438,0,0,1-5.285,14.724c-3.536,4.266-8.156,6.617-13.012,6.617S954.537,3986.138,950.994,3981.869Zm1.242-27.261c-.961,1.809-3.5,6.933-3.5,10.7v1.828a20.329,20.329,0,0,0,4.6,12.784c2.954,3.558,6.747,5.518,10.679,5.518s7.716-1.957,10.661-5.512a20.352,20.352,0,0,0,4.586-12.781v-4.534l-2.045-4.813c-1.735-.811-8.385-3.568-18.476-3.568A57.4,57.4,0,0,0,952.236,3954.608Zm.877-12.612c-3.349,0-6.728,2.386-6.728,7.718a51.39,51.39,0,0,0,1,8.15,43.161,43.161,0,0,1,2.574-5.446,1.523,1.523,0,0,1,1.245-.759c17.031-2.136,27.5,3.45,27.933,3.69a1.521,1.521,0,0,1,.672.742l.431,1.014a50.216,50.216,0,0,0,.2-15.009q-.559.036-1.129.036a46.355,46.355,0,0,1-8.789-1.212c-5.77-1.158-11.737-2.356-15.851.766a1.527,1.527,0,0,1-1.241.276A1.553,1.553,0,0,1,953.113,3942Zm28.262,39.5a1.524,1.524,0,1,1,1.859-2.416,8.26,8.26,0,0,0,5.054,1.762c5.1,0,9.241-4.862,9.241-10.839v-.9a14.7,14.7,0,0,0-1.157-5.481,22.621,22.621,0,0,0-9.6-2.6,1.524,1.524,0,1,1,.227-3.04,25.139,25.139,0,0,1,11.309,3.239l.006,0,.04.023.033.023c.025.016.05.032.073.05a.02.02,0,0,1,.01.006c.269-2.614.505-5.859.559-9.468-1.507-.1-3.243-.374-5.055-.667a53.255,53.255,0,0,0-7.12-.834,1.524,1.524,0,1,1,.06-3.047,56.256,56.256,0,0,1,7.547.872,33.736,33.736,0,0,0,6.016.656c.029,0,.058,0,.088,0l.038,0a1.522,1.522,0,0,1,1.532,1.432,1.5,1.5,0,0,1-.046.472,103.966,103.966,0,0,1-1.508,17.611V3970a14.766,14.766,0,0,1-3.551,9.785,11.565,11.565,0,0,1-8.74,4.1A11.284,11.284,0,0,1,981.375,3981.491Zm-50.4-1.708a14.766,14.766,0,0,1-3.551-9.785v-1.623a62.3,62.3,0,0,1-1.51-10.151c0-4.58,2.535-7.786,6.169-7.815a11.529,11.529,0,0,1,7.664-1.475,1.524,1.524,0,1,1-.3,3.033c-2.694-.266-4.531.1-5.955,1.178a1.52,1.52,0,0,1-.922.31,1.555,1.555,0,0,1-.218-.017,1.532,1.532,0,0,1-.218.017c-1.578,0-3.168,1.475-3.168,4.769a22.114,22.114,0,0,0,.2,2.614c.157-.445.267-.73.294-.8a.043.043,0,0,1,0-.01h0l.005-.011c.017-.042.036-.084.056-.125.011-.021.023-.041.035-.061s.024-.044.037-.066.035-.051.052-.075.021-.03.032-.044.04-.048.061-.072.023-.028.036-.041.041-.04.062-.059a.63.63,0,0,1,.046-.043c.018-.016.038-.031.057-.046l.06-.046.051-.033.076-.047.046-.023c.028-.015.057-.03.087-.043l.049-.019c.028-.012.057-.024.088-.034l.069-.02.071-.019c.043-.01.087-.017.13-.023l.016,0h0l.014,0a36.34,36.34,0,0,1,10.366.407l.271.04a1.524,1.524,0,0,1-.22,3.032,1.425,1.425,0,0,1-.224-.017l-.273-.039a35.75,35.75,0,0,0-8.633-.494,25.08,25.08,0,0,0-1.52,7.1v.9c0,5.977,4.146,10.839,9.241,10.839a8.26,8.26,0,0,0,5.054-1.762,1.524,1.524,0,1,1,1.859,2.416,11.284,11.284,0,0,1-6.913,2.394A11.565,11.565,0,0,1,930.971,3979.783Z" transform="translate(-915.185 -3936.652)"/></svg>