<svg width="70" height="78" xmlns="http://www.w3.org/2000/svg" viewBox="0 0 69.686 77.638"><path d="M68.409 45.439H57.836V27.17a1.278 1.278 0 00-1.277-1.279H48.3l.015-12.1a7.3 7.3 0 001.1-4.475c0-3.97-3.277-8.588-3.417-8.782a1.276 1.276 0 00-2.075 0c-.139.194-3.415 4.812-3.415 8.782a7.371 7.371 0 001.229 4.654l-.007 11.919h-3.6l.014-12.1a7.3 7.3 0 001.1-4.476c0-3.97-3.277-8.588-3.417-8.782a1.276 1.276 0 00-2.075 0c-.139.194-3.415 4.812-3.415 8.782a7.369 7.369 0 001.229 4.654v11.925h-3.6l.01-12.1a7.305 7.305 0 001.1-4.476c0-3.97-3.277-8.588-3.417-8.782a1.276 1.276 0 00-2.075 0c-.139.194-3.415 4.812-3.415 8.782a7.371 7.371 0 001.229 4.654v11.925h-8.257a1.278 1.278 0 00-1.277 1.279v18.27H1.277A1.278 1.278 0 000 46.723V76.36a1.278 1.278 0 001.277 1.28h67.132a1.278 1.278 0 001.277-1.28V46.723a1.278 1.278 0 00-1.277-1.284zM44.961 3.69a12.835 12.835 0 011.9 5.627c0 1.355-.236 3.641-1.817 3.714-.027 0-.054 0-.081.006s-.053-.005-.081-.006c-1.582-.073-1.819-2.359-1.819-3.714a12.848 12.848 0 011.898-5.623zm.784 11.9v10.3h-1.459v-10.3zM34.791 3.69a12.836 12.836 0 011.9 5.627c0 1.356-.236 3.641-1.817 3.714l-.081.007-.081-.007c-1.583-.073-1.819-2.358-1.819-3.714a12.85 12.85 0 011.897-5.629zm.784 11.9v10.307h-1.457V15.59zM24.618 3.69a12.834 12.834 0 011.9 5.627c0 1.356-.236 3.641-1.817 3.714-.027 0-.054 0-.081.007l-.081-.007c-1.582-.073-1.819-2.358-1.819-3.714a12.851 12.851 0 011.897-5.629zm.787 22.206h-1.46V15.589H25.4zm-10.994 2.559h40.871v5.573c-2.882 5.334-8.967 5.491-9.662 5.491h-.1a10.638 10.638 0 01-9.5-6.061 1.276 1.276 0 00-1.159-.769h-.013a1.277 1.277 0 00-1.161.746c-2.649 5.792-8.768 6.085-9.968 6.085h-.139a10.508 10.508 0 01-9.169-5.446v-5.616zm52.722 39.877v6.749H2.554V64.269a13.023 13.023 0 008.878 3.377h.2c1.32 0 7.86-.292 11.661-5.886a13.391 13.391 0 0011.135 5.885c.6.018 7.79.1 11.856-5.883a13.382 13.382 0 0011.144 5.883 15.256 15.256 0 009.706-3.589v4.274zm0-17.281v9.156c-3.37 4.954-9.6 4.878-9.658 4.881h-.034a11.21 11.21 0 01-10.014-6.39 1.277 1.277 0 00-1.159-.77h-.013a1.278 1.278 0 00-1.161.747c-3.009 6.584-10.292 6.422-10.6 6.414h-.048a11.192 11.192 0 01-10-6.349 1.277 1.277 0 00-2.363-.033c-3.017 6.553-10.281 6.392-10.585 6.383h-.048a10.7 10.7 0 01-8.9-4.6V48.009H40.5a1.28 1.28 0 000-2.559H14.41v-7.193a12.546 12.546 0 009.15 3.824h.159c1.323 0 7.514-.294 11.155-5.571a12.81 12.81 0 0010.627 5.569h.119a14.711 14.711 0 009.662-3.843v7.211h-3.936a1.28 1.28 0 000 2.559h15.787v3.047z" fill="#fc0"/></svg>