<svg width="98" height="75" xmlns="http://www.w3.org/2000/svg" viewBox="0 0 97.63 74.665"><path d="M52.276 74.663H18.749a4.8 4.8 0 01-4.994-4.558v-2.866a13.074 13.074 0 012.275-7.3 11.6 11.6 0 016.493-4.728c.032-.009.065-.017.1-.024l9.076-1.9 2.4-3.634.053-.076a2.683 2.683 0 013.844-.465l.029.024 10.79 9.284 10.791-9.281.029-.025a2.684 2.684 0 013.844.466l.053.076 2.4 3.634 9.076 1.9.1.024a11.605 11.605 0 016.492 4.728 13.072 13.072 0 012.275 7.3v2.866a4.8 4.8 0 01-4.994 4.558h-26.6zm.352-7.573l.906 4.525H78.88a1.794 1.794 0 001.944-1.511v-2.866c0-3.595-2.23-7.858-6.493-9.079l-8.673-1.811-8.671 11.911a1.526 1.526 0 01-1.114.623h-.119a1.529 1.529 0 01-1.079-.446l-1.779-1.777a4.022 4.022 0 01-.267.432zm-5.422 4.525h3.216l-.607-3.036h-2zM23.298 58.159c-4.263 1.22-6.493 5.484-6.493 9.079v2.866a1.792 1.792 0 001.944 1.51h25.346l.906-4.525a3.921 3.921 0 01-.267-.426l-1.779 1.777a1.526 1.526 0 01-1.079.446 1.149 1.149 0 01-.119-.005 1.521 1.521 0 01-1.114-.623l-8.671-11.91zm23.991 5.95v.587c0 .5.306.834.508.834h2.035c.2 0 .508-.333.508-.834v-.587l-1.525-1.523zm3.767-3.595l4.513 4.509 7.58-10.412-1.894-2.868zm-16.575-5.9l7.579 10.412 4.513-4.509-10.2-8.771zM86.952 64a1.524 1.524 0 110-3.048h6.791c.478 0 .837-.286.837-.542v-1.951a5.954 5.954 0 00-4.052-5.709l-5.555-1.161-2.869 4.135a1.525 1.525 0 01-2.507-1.737l2.857-4.117-.844-1.279-5.95 4.438a1.524 1.524 0 11-1.825-2.442l6.53-4.87a2.316 2.316 0 013.282.429c.018.024.035.049.052.075l1.523 2.307 5.983 1.25c.034.007.066.015.1.024a9.042 9.042 0 016.325 8.656v1.951a3.752 3.752 0 01-3.887 3.59zM3.889 64a3.751 3.751 0 01-3.888-3.59v-1.951a9.042 9.042 0 016.325-8.656l.1-.024 5.983-1.25 1.523-2.307c.017-.026.034-.051.053-.075a2.315 2.315 0 013.281-.429l6.529 4.871a1.524 1.524 0 11-1.825 2.441l-5.949-4.437-.845 1.279 2.858 4.118a1.525 1.525 0 01-2.508 1.737l-2.869-4.135-5.555 1.161a5.951 5.951 0 00-4.051 5.708v1.951c0 .256.357.542.837.542h6.79a1.524 1.524 0 110 3.048zM35.81 45.219a23.417 23.417 0 01-5.3-14.73v-2.472c-.33-1.4-2.356-10.194-2.356-14.952a11.6 11.6 0 012.539-7.512 9.285 9.285 0 017.239-3.255c.046 0 .093 0 .139.007C43.23-1.269 49.971.083 55.946 1.28c3.686.74 7.166 1.439 10 1.033a1.547 1.547 0 01.353-.008 1.527 1.527 0 011.6 1.047 30.8 30.8 0 01.879 8.347 63.082 63.082 0 01-1.641 14.129v4.671a23.438 23.438 0 01-5.285 14.724c-3.536 4.266-8.156 6.617-13.012 6.617s-9.488-2.354-13.031-6.623zm1.242-27.261c-.961 1.809-3.5 6.933-3.5 10.7v1.828a20.329 20.329 0 004.6 12.784c2.954 3.558 6.747 5.518 10.679 5.518s7.716-1.957 10.661-5.512a20.352 20.352 0 004.586-12.781v-4.534l-2.045-4.813c-1.735-.811-8.385-3.568-18.476-3.568a57.4 57.4 0 00-6.506.376zm.877-12.612c-3.349 0-6.728 2.386-6.728 7.718a51.39 51.39 0 001 8.15 43.161 43.161 0 012.574-5.446 1.523 1.523 0 011.245-.759c17.031-2.136 27.5 3.45 27.933 3.69a1.521 1.521 0 01.672.742l.431 1.014a50.216 50.216 0 00.2-15.009q-.559.036-1.129.036a46.355 46.355 0 01-8.789-1.212c-5.77-1.158-11.737-2.356-15.851.766a1.527 1.527 0 01-1.241.276 1.553 1.553 0 01-.318.036zm28.262 39.5a1.524 1.524 0 111.859-2.416 8.26 8.26 0 005.054 1.762c5.1 0 9.241-4.862 9.241-10.839v-.9a14.7 14.7 0 00-1.157-5.481 22.621 22.621 0 00-9.6-2.6 1.524 1.524 0 11.227-3.04 25.139 25.139 0 0111.309 3.239h.006l.04.023.033.023a.94.94 0 01.073.05.02.02 0 01.01.006c.269-2.614.505-5.859.559-9.468-1.507-.1-3.243-.374-5.055-.667a53.255 53.255 0 00-7.12-.834 1.524 1.524 0 11.06-3.047 56.256 56.256 0 017.547.872 33.736 33.736 0 006.016.656h.126a1.522 1.522 0 011.532 1.432 1.5 1.5 0 01-.046.472A103.966 103.966 0 0185.397 31.7v1.648a14.766 14.766 0 01-3.551 9.785 11.565 11.565 0 01-8.74 4.1 11.284 11.284 0 01-6.916-2.394zm-50.4-1.708a14.766 14.766 0 01-3.551-9.785V31.73a62.3 62.3 0 01-1.51-10.151c0-4.58 2.535-7.786 6.169-7.815a11.529 11.529 0 017.664-1.475 1.524 1.524 0 11-.3 3.033c-2.694-.266-4.531.1-5.955 1.178a1.52 1.52 0 01-.922.31 1.555 1.555 0 01-.218-.017 1.532 1.532 0 01-.218.017c-1.578 0-3.168 1.475-3.168 4.769a22.114 22.114 0 00.2 2.614c.157-.445.267-.73.294-.8a.043.043 0 010-.01l.005-.011a1.208 1.208 0 01.091-.186l.037-.066c.013-.022.035-.051.052-.075l.032-.044.061-.072c.021-.024.023-.028.036-.041l.062-.059a.63.63 0 01.046-.043c.018-.016.038-.031.057-.046l.06-.046.051-.033.076-.047.046-.023c.028-.015.057-.03.087-.043l.049-.019c.028-.012.057-.024.088-.034l.069-.02.071-.019c.043-.01.087-.017.13-.023h.03a36.34 36.34 0 0110.366.407l.271.04a1.524 1.524 0 01-.22 3.032 1.425 1.425 0 01-.224-.017l-.273-.039a35.75 35.75 0 00-8.633-.494 25.08 25.08 0 00-1.52 7.1v.9c0 5.977 4.146 10.839 9.241 10.839a8.26 8.26 0 005.054-1.762 1.524 1.524 0 111.859 2.416 11.284 11.284 0 01-6.913 2.394 11.565 11.565 0 01-8.734-4.118z" fill="#fc0"/></svg>