<svg width="86" height="56" xmlns="http://www.w3.org/2000/svg" viewBox="0 0 86.528 56.096"><path d="M11.45 54.715a1.384 1.384 0 011.381-1.381c4.26 0 10.267-4.653 15.315-9.524-5.307 3.193-11.86 6.382-17.564 6.941a17.59 17.59 0 01-1.7.085 13.121 13.121 0 01-2.863-.3 1.38 1.38 0 01-.892-.653C4.918 49.524 0 40.945 0 28.045S4.918 6.566 5.127 6.207a1.383 1.383 0 01.892-.652 14.532 14.532 0 014.563-.209c5.7.558 12.257 3.746 17.565 6.939C23.099 7.414 17.092 2.76 12.832 2.76a1.381 1.381 0 110-2.761c4.294 0 9.95 3.326 16.812 9.887a109.831 109.831 0 018.46 9.121h10.319a109.8 109.8 0 018.462-9.123c6.862-6.56 12.519-9.887 16.812-9.887a1.381 1.381 0 010 2.761c-4.26 0-10.266 4.653-15.314 9.523 5.308-3.193 11.86-6.38 17.564-6.937a14.468 14.468 0 014.563.21 1.377 1.377 0 01.892.651c.21.359 5.127 8.939 5.127 21.839s-4.917 21.479-5.127 21.838a1.382 1.382 0 01-.892.652 13.159 13.159 0 01-2.863.3c-.557 0-1.125-.03-1.7-.086-5.7-.559-12.256-3.748-17.563-6.94 5.048 4.869 11.055 9.524 15.316 9.524a1.381 1.381 0 010 2.761c-4.294 0-9.951-3.326-16.813-9.887a110.013 110.013 0 01-8.459-9.119H38.104a110.012 110.012 0 01-8.461 9.121c-6.862 6.559-12.518 9.887-16.812 9.887a1.382 1.382 0 01-1.381-1.38zM7.226 8.14a46.629 46.629 0 000 39.817c4.263.654 10.525-1.32 18.171-5.74a100.668 100.668 0 0010.67-7.182V21.06a100.786 100.786 0 00-10.67-7.181c-6.689-3.868-12.318-5.863-16.478-5.863a11.164 11.164 0 00-1.693.124zm53.906 5.738a100.835 100.835 0 00-10.67 7.18v13.975a100.639 100.639 0 0010.67 7.181c7.645 4.42 13.9 6.395 18.17 5.74a46.631 46.631 0 000-39.817 11.148 11.148 0 00-1.693-.123c-4.158.002-9.788 1.997-16.477 5.864zm-22.3 20.448h8.873V21.77h-8.873zm-18.627.011a1.38 1.38 0 01.925-1.72l10.4-3.129a1.382 1.382 0 11.8 2.645l-10.4 3.128a1.335 1.335 0 01-.4.059 1.38 1.38 0 01-1.33-.983zm44.332.9l-8.561-3.13a1.381 1.381 0 01.948-2.594l8.561 3.129a1.381 1.381 0 01-.474 2.678 1.4 1.4 0 01-.479-.085zm-33.006-8.626l-10.4-3.128a1.382 1.382 0 11.8-2.645l10.4 3.129a1.381 1.381 0 11-.8 2.644zm23.623-.849a1.38 1.38 0 01.822-1.77l8.561-3.13a1.381 1.381 0 11.948 2.594l-8.561 3.129a1.349 1.349 0 01-.474.084 1.379 1.379 0 01-1.301-.91z" fill="#fc0"/></svg>