<svg width="70" height="78" xmlns="http://www.w3.org/2000/svg" viewBox="0 0 69.686 77.638"><defs><style>.a{fill:#fc0;}</style></defs><path class="a" d="M615.409,3981.8H604.836v-18.269a1.278,1.278,0,0,0-1.277-1.279H595.3s.015-11.824.015-12.1a7.3,7.3,0,0,0,1.1-4.475c0-3.97-3.277-8.588-3.417-8.782a1.276,1.276,0,0,0-2.075,0c-.139.194-3.415,4.812-3.415,8.782a7.371,7.371,0,0,0,1.229,4.654c0,.231-.007,11.919-.007,11.919h-3.6s.014-11.83.014-12.1a7.3,7.3,0,0,0,1.1-4.476c0-3.97-3.277-8.588-3.417-8.782a1.276,1.276,0,0,0-2.075,0c-.139.194-3.415,4.812-3.415,8.782a7.369,7.369,0,0,0,1.229,4.654c0,.234,0,11.925,0,11.925h-3.6s.01-11.83.01-12.1a7.305,7.305,0,0,0,1.1-4.476c0-3.97-3.277-8.588-3.417-8.782a1.276,1.276,0,0,0-2.075,0c-.139.194-3.415,4.812-3.415,8.782a7.371,7.371,0,0,0,1.229,4.654c0,.234,0,11.925,0,11.925h-8.257a1.278,1.278,0,0,0-1.277,1.279v18.27H548.277a1.278,1.278,0,0,0-1.277,1.279v29.637a1.278,1.278,0,0,0,1.277,1.28h67.132a1.278,1.278,0,0,0,1.277-1.28v-29.637A1.278,1.278,0,0,0,615.409,3981.8Zm-23.448-41.749a12.835,12.835,0,0,1,1.9,5.627c0,1.355-.236,3.641-1.817,3.714-.027,0-.054,0-.081.006s-.053-.005-.081-.006c-1.582-.073-1.819-2.359-1.819-3.714A12.848,12.848,0,0,1,591.961,3940.055Zm.784,11.9v10.3h-1.459l0-10.3Zm-10.954-11.9a12.836,12.836,0,0,1,1.9,5.627c0,1.356-.236,3.641-1.817,3.714l-.081.007-.081-.007c-1.583-.073-1.819-2.358-1.819-3.714A12.85,12.85,0,0,1,581.79,3940.049Zm.784,11.9v10.307h-1.457v-10.307Zm-10.957-11.9a12.834,12.834,0,0,1,1.9,5.627c0,1.356-.236,3.641-1.817,3.714-.027,0-.054,0-.081.007l-.081-.007c-1.582-.073-1.819-2.358-1.819-3.714A12.851,12.851,0,0,1,571.617,3940.049Zm.787,22.206h-1.46v-10.307H572.4Zm-10.994,2.559h40.871v5.573c-2.882,5.334-8.967,5.491-9.662,5.491h-.1a10.638,10.638,0,0,1-9.5-6.061,1.276,1.276,0,0,0-1.159-.769h-.013a1.277,1.277,0,0,0-1.161.746c-2.649,5.792-8.768,6.085-9.968,6.085h-.139a10.508,10.508,0,0,1-9.169-5.446v-5.616Zm52.722,39.877v6.749H549.554v-10.812a13.023,13.023,0,0,0,8.878,3.377c.039,0,.105,0,.2,0,1.32,0,7.86-.292,11.661-5.886a13.391,13.391,0,0,0,11.135,5.885c.6.018,7.79.1,11.856-5.883a13.382,13.382,0,0,0,11.144,5.883,15.256,15.256,0,0,0,9.706-3.589v4.274Zm0-17.281v9.156c-3.37,4.954-9.6,4.878-9.658,4.881h-.034a11.21,11.21,0,0,1-10.014-6.39,1.277,1.277,0,0,0-1.159-.77h-.013a1.278,1.278,0,0,0-1.161.747c-3.009,6.584-10.292,6.422-10.6,6.414h-.048a11.192,11.192,0,0,1-10-6.349,1.277,1.277,0,0,0-2.363-.033c-3.017,6.553-10.281,6.392-10.585,6.383h-.048a10.7,10.7,0,0,1-8.9-4.6v-12.481H587.5a1.279,1.279,0,0,0,0-2.559H561.41v-7.193a12.546,12.546,0,0,0,9.15,3.824l.159,0h0c1.323,0,7.514-.294,11.155-5.571a12.81,12.81,0,0,0,10.627,5.569h.119a14.711,14.711,0,0,0,9.662-3.843v7.211h-3.936a1.279,1.279,0,0,0,0,2.559h15.787v3.047Z" transform="translate(-547 -3936.361)"/></svg>