<svg width="86" height="56" xmlns="http://www.w3.org/2000/svg" viewBox="0 0 86.528 56.096"><defs><style>.a{fill:#fc0;}</style></defs><path class="a" d="M1307.686,4004.167a1.384,1.384,0,0,1,1.381-1.381c4.26,0,10.267-4.653,15.315-9.524-5.307,3.193-11.86,6.382-17.564,6.941-.576.056-1.144.085-1.7.085a13.121,13.121,0,0,1-2.863-.3,1.38,1.38,0,0,1-.892-.653c-.209-.359-5.127-8.938-5.127-21.838s4.918-21.479,5.127-21.838a1.383,1.383,0,0,1,.892-.652,14.532,14.532,0,0,1,4.563-.209c5.7.558,12.257,3.746,17.565,6.939-5.048-4.871-11.055-9.525-15.315-9.525a1.381,1.381,0,1,1,0-2.761c4.294,0,9.95,3.326,16.812,9.887a109.831,109.831,0,0,1,8.46,9.121h10.319a109.8,109.8,0,0,1,8.462-9.123c6.862-6.56,12.519-9.887,16.812-9.887a1.381,1.381,0,0,1,0,2.761c-4.26,0-10.266,4.653-15.314,9.523,5.308-3.193,11.86-6.38,17.564-6.937a14.468,14.468,0,0,1,4.563.21,1.377,1.377,0,0,1,.892.651c.21.359,5.127,8.939,5.127,21.839s-4.917,21.479-5.127,21.838a1.382,1.382,0,0,1-.892.652,13.159,13.159,0,0,1-2.863.3c-.557,0-1.125-.03-1.7-.086-5.7-.559-12.256-3.748-17.563-6.94,5.048,4.869,11.055,9.524,15.316,9.524a1.381,1.381,0,0,1,0,2.761c-4.294,0-9.951-3.326-16.813-9.887a110.013,110.013,0,0,1-8.459-9.119H1334.34a110.012,110.012,0,0,1-8.461,9.121c-6.862,6.559-12.518,9.887-16.812,9.887A1.382,1.382,0,0,1,1307.686,4004.167Zm-4.224-46.575a46.629,46.629,0,0,0,0,39.817c4.263.654,10.525-1.32,18.171-5.74a100.668,100.668,0,0,0,10.67-7.182v-13.975a100.786,100.786,0,0,0-10.67-7.181c-6.689-3.868-12.318-5.863-16.478-5.863A11.164,11.164,0,0,0,1303.462,3957.592Zm53.906,5.738a100.835,100.835,0,0,0-10.67,7.18v13.975a100.639,100.639,0,0,0,10.67,7.181c7.645,4.42,13.9,6.395,18.17,5.74a46.631,46.631,0,0,0,0-39.817,11.148,11.148,0,0,0-1.693-.123C1369.687,3957.468,1364.057,3959.463,1357.368,3963.33Zm-22.3,20.448h8.873v-12.556h-8.873Zm-18.627.011a1.38,1.38,0,0,1,.925-1.72l10.4-3.129a1.381,1.381,0,1,1,.8,2.645l-10.4,3.128a1.335,1.335,0,0,1-.4.059A1.38,1.38,0,0,1,1316.436,3983.789Zm44.332.9-8.561-3.13a1.381,1.381,0,0,1,.948-2.594l8.561,3.129a1.381,1.381,0,0,1-.474,2.678A1.4,1.4,0,0,1,1360.768,3984.687Zm-33.006-8.626-10.4-3.128a1.381,1.381,0,1,1,.8-2.645l10.4,3.129a1.38,1.38,0,1,1-.8,2.644Zm23.623-.849a1.38,1.38,0,0,1,.822-1.77l8.561-3.13a1.381,1.381,0,1,1,.948,2.594l-8.561,3.129a1.349,1.349,0,0,1-.474.084A1.379,1.379,0,0,1,1351.385,3975.211Z" transform="translate(-1296.236 -3949.452)"/></svg>